<svg xmlns="http://www.w3.org/2000/svg" width="800" height="1200" viewBox="0 0 800 1200" fill="none">
  <defs>
    <pattern id="tatreez" width="48" height="48" patternUnits="userSpaceOnUse">
      <rect width="48" height="48" fill="#1a0f12"/>
      <path d="M0 24h48M24 0v48" stroke="#3d2520" stroke-width="0.5" opacity="0.4"/>
      <rect x="18" y="18" width="12" height="12" fill="#5c2e28" opacity="0.25"/>
      <path d="M12 12l6 6-6 6M36 12l-6 6 6 6M12 36l6-6 6 6M36 36l-6-6-6 6" stroke="#8b3a32" stroke-width="1" opacity="0.2"/>
    </pattern>
    <radialGradient id="vignette" cx="50%" cy="35%" r="75%">
      <stop offset="0%" stop-color="#3d1f24" stop-opacity="0.9"/>
      <stop offset="55%" stop-color="#1a0f12" stop-opacity="0.95"/>
      <stop offset="100%" stop-color="#0d0708" stop-opacity="1"/>
    </radialGradient>
    <linearGradient id="goldAccent" x1="0" y1="0" x2="800" y2="1200">
      <stop offset="0%" stop-color="#d4a853" stop-opacity="0.08"/>
      <stop offset="50%" stop-color="#c9785c" stop-opacity="0.04"/>
      <stop offset="100%" stop-color="#8b3a32" stop-opacity="0.06"/>
    </linearGradient>
  </defs>
  <rect width="800" height="1200" fill="url(#tatreez)"/>
  <rect width="800" height="1200" fill="url(#vignette)"/>
  <rect width="800" height="1200" fill="url(#goldAccent)"/>
  <g opacity="0.15" stroke="#d4a853" stroke-width="1" fill="none">
    <path d="M40 80 Q400 40 760 80"/>
    <path d="M40 1120 Q400 1160 760 1120"/>
    <circle cx="400" cy="600" r="180"/>
    <circle cx="400" cy="600" r="220"/>
  </g>
</svg>
